<svg width="60" height="60" viewBox="0 0 60 60" fill="none" xmlns="http://www.w3.org/2000/svg">
<g clip-path="url(#clip0)">
<path d="M0.236053 36.6633V33.0239C0.738544 25.6177 16.9328 25.6177 16.9328 25.6177C19.3215 24.0651 21.4496 22.8296 23.2459 21.864C27.7121 19.4621 32.724 18.2415 37.7959 18.3484C40.3609 18.4028 46.1133 18.744 47.6414 19.0253C53.4033 20.0846 57.187 25.5333 57.187 25.5333C57.6202 25.6439 57.9465 25.8634 58.1902 26.1426C59.1296 27.1964 58.9027 28.7095 58.9027 30.9314C61.372 34.5295 58.9027 37.4582 58.9027 37.4582L58.4209 37.2538L57.5753 36.8976L57.3128 36.7888L55.7679 37.0682L49.3704 38.2289L47.5516 38.5589L47.396 38.587L46.4435 38.0921L46.2673 38.0002L17.0193 38.587L16.5487 38.2645L16.2262 38.0432H6.22496L5.76187 38.1932L4.92559 38.4651L4.55254 38.5869C-1.52084 38.3788 0.236053 36.6633 0.236053 36.6633Z" fill="#88B337"/>
<path d="M19.4791 25.1357C20.9022 24.262 22.3141 23.4276 23.6885 22.6889C27.9016 20.4239 32.544 19.2371 37.7752 19.2838C47.0621 19.4789 50.9976 19.7245 55.6682 25.1357H19.4791Z" fill="#E8E8EA"/>
<path d="M46.2051 36.4006C46.2051 36.9875 46.2857 37.5556 46.4414 38.0937L47.3939 38.5887L47.5496 38.5606C48.3746 40.3868 50.2082 41.6562 52.3421 41.6562C55.0758 41.6562 57.3239 39.5675 57.5752 36.8976L58.4208 37.2538C58.4602 36.9744 58.4807 36.6875 58.4807 36.3988C58.4807 33.0089 55.7338 30.262 52.342 30.262C48.952 30.2638 46.2051 33.0107 46.2051 36.4006Z" fill="#454545"/>
<path d="M55.147 26.4595L58.1882 26.1426H58.1902C58.8596 26.8945 58.9214 27.9183 58.9214 28.9008C58.9214 28.9008 57.9858 28.7002 56.3077 28.1395C54.6256 27.5807 55.147 26.4595 55.147 26.4595Z" fill="white"/>
<path d="M4.7941 28.8614C4.7941 30.9594 3.09533 32.6582 1.00101 32.6582C1.00101 30.5619 2.69979 28.8614 4.7941 28.8614Z" fill="white"/>
<path d="M46.5163 19.8446V25.1321H47.6413V19.9946C47.4032 19.9158 46.7057 19.8446 46.5163 19.8446Z" fill="black"/>
<path d="M36.6727 19.3008V25.132H37.7977V19.282C37.539 19.282 36.9145 19.2746 36.6727 19.3008Z" fill="black"/>
<path d="M31.8595 27.1964H34.9982C35.1763 27.1964 35.3207 27.3408 35.3207 27.519C35.3207 27.6971 35.1763 27.8415 34.9982 27.8415H31.8595C31.6813 27.8415 31.5369 27.6971 31.5369 27.519C31.5371 27.3407 31.6813 27.1964 31.8595 27.1964Z" fill="white"/>
<path d="M4.56156 36.4006C4.56156 37.1262 4.68725 37.8237 4.91964 38.4687L5.75591 38.1968C6.48898 40.2143 8.42595 41.658 10.6965 41.658C13.0233 41.658 14.9995 40.1449 15.6896 38.0468H16.2202L16.5428 38.2681C16.7303 37.6793 16.8315 37.0531 16.8315 36.4024C16.8315 33.0125 14.0846 30.2656 10.6946 30.2656C7.30846 30.2638 4.56156 33.0107 4.56156 36.4006Z" fill="#454545"/>
<path d="M52.3419 31.1451C55.2444 31.1451 57.5993 33.4981 57.5993 36.4006C57.5993 36.5694 57.5918 36.7344 57.5749 36.8994C57.3255 39.5694 55.0755 41.6581 52.3418 41.6581C50.2081 41.6581 48.3743 40.3868 47.5512 38.5624C47.2531 37.9042 47.0881 37.173 47.0881 36.4005C47.0863 33.4963 49.4376 31.1451 52.3419 31.1451Z" fill="black"/>
<path d="M52.3419 39.8918C50.4138 39.8918 48.8507 38.3288 48.8507 36.4006C48.8507 34.4725 50.4138 32.9094 52.3419 32.9094C54.2701 32.9094 55.8331 34.4725 55.8331 36.4006C55.8331 38.3288 54.2701 39.8918 52.3419 39.8918Z" fill="#E8E8EA"/>
<path d="M10.6984 31.1451C13.6008 31.1451 15.9558 33.4981 15.9558 36.4006C15.9558 36.9762 15.864 37.5294 15.6933 38.0468C15.0033 40.1449 13.027 41.6581 10.7002 41.6581C8.42776 41.6581 6.4908 40.2143 5.75773 38.1968C5.55337 37.6362 5.44267 37.0324 5.44267 36.4005C5.44098 33.4963 7.79403 31.1451 10.6984 31.1451Z" fill="black"/>
<path d="M10.6984 39.8918C8.77024 39.8918 7.20718 38.3288 7.20718 36.4006C7.20718 34.4725 8.77024 32.9094 10.6984 32.9094C12.6265 32.9094 14.1896 34.4725 14.1896 36.4006C14.1896 38.3288 12.6265 39.8918 10.6984 39.8918Z" fill="#E8E8EA"/>
</g>
<defs>
<clipPath id="clip0">
<rect width="60" height="60" fill="white" transform="matrix(-1 0 0 1 60 0)"/>
</clipPath>
</defs>
</svg>
