<svg width="60" height="60" viewBox="0 0 60 60" fill="none" xmlns="http://www.w3.org/2000/svg">
<g clip-path="url(#clip0)">
<path d="M26.8818 3.96973V35.6565H44.8419L26.8818 3.96973Z" fill="#E8E8EA"/>
<path d="M3.14738 41.5603H27.3645C27.3645 41.5603 18.9659 36.5694 24.8377 9.92722L3.14738 41.5603Z" fill="#E8E8EA"/>
<path d="M1.30011 45.1582C1.58862 45.1582 1.87222 45.0206 2.04765 44.7647L27.6281 7.45837C27.9109 7.04598 27.8059 6.48243 27.3934 6.19966C26.9809 5.917 26.4173 6.022 26.1346 6.43438L0.554203 43.7407C0.271429 44.1531 0.376432 44.7166 0.788933 44.9994C0.945379 45.1067 1.12374 45.1582 1.30011 45.1582Z" fill="black"/>
<path d="M26.8821 41.6574C27.3821 41.6574 27.7875 41.2521 27.7875 40.752V3.36618C27.7875 2.86602 27.3821 2.46078 26.8821 2.46078C26.3821 2.46078 25.9767 2.86614 25.9767 3.36618V40.7519C25.9767 41.2521 26.3821 41.6574 26.8821 41.6574Z" fill="black"/>
<path d="M0.751693 43.6499C1.62087 43.8333 4.34924 44.3352 4.34924 44.3352C4.3592 44.4116 4.38252 44.4886 4.42471 44.5634C5.16908 45.8818 5.9635 47.257 6.74866 48.5986C5.09865 48.3632 3.49693 48.1089 1.95861 47.8336C1.95638 47.8297 0.0817289 44.5641 0.0817289 44.5641C-0.181827 44.0976 0.227277 43.5393 0.751693 43.6499Z" fill="black"/>
<path d="M26.8818 36.5621H46.2833C46.7834 36.5621 47.1887 36.1567 47.1887 35.6567C47.1887 35.1565 46.7834 34.7513 46.2833 34.7513H26.8818C26.3818 34.7513 25.9764 35.1566 25.9764 35.6567C25.9764 36.1567 26.3818 36.5621 26.8818 36.5621Z" fill="black"/>
<path d="M44.9493 49.1036L38.4698 40.1724C38.1188 39.6886 37.5574 39.4023 36.9597 39.4023H25.1913C22.7117 39.4023 20.3053 40.2421 18.3641 41.7849L11.3754 47.339L44.9493 49.1036Z" fill="black"/>
<path d="M1.95923 47.8337H1.95889C1.95435 47.8258 1.95458 47.8262 1.95923 47.8337Z" fill="#88B337"/>
<path d="M58.5199 51.4672L55.7704 57.1966C55.67 57.4059 55.4584 57.5391 55.2262 57.5391H8.44264C8.02217 57.5391 7.63252 57.3212 7.41326 56.9625C6.52533 55.5101 2.10467 48.0734 1.95936 47.8337C10.6584 49.3905 21.3548 49.4654 31.6676 49.9782C41.7173 50.478 51.4026 51.435 58.5199 51.4672Z" fill="#88B337"/>
<path d="M29.5819 49.3383L16.273 49.1037C17.55 48.1698 22.3469 42.8926 25.1914 42.8926H29.5819V49.3383Z" fill="white"/>
<path d="M31.3925 42.8925H35.8274C36.0182 42.8925 36.1974 42.9839 36.3094 43.1383L40.9528 49.5387L31.3925 49.3701V42.8925Z" fill="white"/>
<path d="M58.52 51.4673C44.0991 51.4021 19.1354 50.9078 1.95912 47.8337C1.32185 46.7389 0.68541 45.6325 0.0822449 44.5642C-0.181194 44.0975 0.227909 43.5394 0.752205 43.6499C17.8951 47.266 45.8229 47.6057 59.3773 47.62C59.836 47.6204 60.1363 48.0994 59.9377 48.5128L58.52 51.4673Z" fill="#E8E8EA"/>
</g>
<defs>
<clipPath id="clip0">
<rect width="60" height="60" fill="white" transform="matrix(-1 0 0 1 60 0)"/>
</clipPath>
</defs>
</svg>
