<svg width="60" height="60" viewBox="0 0 60 60" fill="none" xmlns="http://www.w3.org/2000/svg">
<path d="M51.2658 30.0188C46.4425 30.0188 42.5323 33.9289 42.5323 38.7523C42.5323 43.5756 46.4425 47.4857 51.2658 47.4857C56.0891 47.4857 59.9993 43.5755 59.9993 38.7523C59.9992 33.9289 56.0891 30.0188 51.2658 30.0188ZM51.2658 44.1169C48.303 44.1169 45.901 41.715 45.901 38.7522C45.901 35.7893 48.3029 33.3874 51.2658 33.3874C54.2285 33.3874 56.6304 35.7893 56.6304 38.7522C56.6304 41.715 54.2285 44.1169 51.2658 44.1169Z" fill="#88B337"/>
<path d="M51.2658 45.035C47.9421 45.035 45.1874 42.4382 44.9943 39.1228L46.8279 39.0159C46.9645 41.3612 48.914 43.1982 51.2658 43.1982C53.7173 43.1982 55.7119 41.2037 55.7119 38.7521C55.7119 36.3006 53.7173 34.3061 51.2658 34.3061C49.6351 34.3061 48.1378 35.1963 47.3582 36.6294L45.7446 35.7517C46.8461 33.7271 48.9614 32.4694 51.2656 32.4694C54.7299 32.4694 57.5483 35.2879 57.5483 38.7521C57.5486 42.2166 54.7301 45.035 51.2658 45.035Z" fill="black"/>
<path d="M8.73352 30.0188C3.9102 30.0188 0 33.9289 0 38.7523C0 43.5756 3.9102 47.4857 8.73352 47.4857C13.5568 47.4857 17.467 43.5755 17.467 38.7523C17.4669 33.9289 13.5567 30.0188 8.73352 30.0188ZM8.73352 44.1169C5.77078 44.1169 3.36879 41.715 3.36879 38.7522C3.36879 35.7893 5.77066 33.3874 8.73352 33.3874C11.6962 33.3874 14.0981 35.7893 14.0981 38.7522C14.0981 41.715 11.6962 44.1169 8.73352 44.1169Z" fill="#88B337"/>
<path d="M8.73341 45.0353C5.269 45.0353 2.45029 42.2168 2.45029 38.7521C2.45029 35.2876 5.26876 32.469 8.73341 32.469C12.1981 32.469 15.0165 35.2875 15.0165 38.7521C15.0165 42.2167 12.1979 45.0353 8.73341 45.0353ZM8.73341 34.3059C6.28173 34.3059 4.28708 36.3005 4.28708 38.7523C4.28708 41.2041 6.28162 43.1986 8.73341 43.1986C11.1852 43.1986 13.1797 41.2041 13.1797 38.7523C13.1797 36.3005 11.1852 34.3059 8.73341 34.3059Z" fill="black"/>
<path d="M8.73306 39.6709C8.61259 39.6709 8.49013 39.647 8.37235 39.5967C7.90595 39.3973 7.68973 38.8575 7.88919 38.3912L12.4909 27.634C12.6904 27.1676 13.2302 26.9514 13.6964 27.1508C14.1628 27.3503 14.379 27.89 14.1796 28.3563L9.57786 39.1136C9.42868 39.462 9.08966 39.6709 8.73306 39.6709Z" fill="#1D2C30"/>
<path d="M37.3663 39.575L51.8983 38.9234C52.7962 38.883 53.0095 37.6496 52.1773 37.3101L37.8775 31.4753L31.6674 29.4047L26.3411 39.8735L37.3663 39.575Z" fill="black"/>
<path d="M37.3253 17.7305L20.6477 31.0577L19.7686 26.9777L18.4082 20.6655L19.8004 18.8986C21.1204 17.2235 23.2033 16.3357 25.3253 16.5464L29.6417 16.9725L37.3253 17.7305Z" fill="#88B337"/>
<path d="M14.327 22.9418L17.282 14.1841C17.6063 13.219 16.7115 12.2784 15.7352 12.5673C4.60876 15.8586 0.288525 28.3331 0.0148926 29.1585C0.0099707 29.1731 0.00633789 29.183 0.00387695 29.1903C0.00141602 29.1977 0.000244141 29.2014 0.000244141 29.2014" fill="#88B337"/>
<path d="M24.6127 22.3296C26.6722 26.1977 22.1122 26.8761 19.7686 26.9777L18.4082 20.6655L19.8004 18.8986C21.1204 17.2235 23.2033 16.3357 25.3253 16.5464L29.6417 16.9725C28.1624 16.8267 21.8893 17.2161 24.6127 22.3296Z" fill="#88B337"/>
<path d="M20.6476 31.0574L30.5805 35.1046H30.5817L45.4286 27.7196L48.5387 21.1105C49.0444 20.0359 50.0481 19.2804 51.2207 19.0917L58.6651 17.8938C59.4343 17.7701 59.9998 17.1062 59.9998 16.3271C59.9998 15.4508 59.2894 14.7403 58.4129 14.7403H47.8773L37.325 17.7305H37.3239H37.3227L21.3763 22.2489L20.6476 31.0574Z" fill="#E8E8EA"/>
<path d="M28.2643 20.2969L30.9945 22.3777C32.3104 23.3807 34.1116 23.4587 35.5095 22.5735L47.8777 14.7403" fill="black"/>
<path d="M25.991 20.9411L36.259 27.6759L45.4287 27.7196L30.5806 35.1046H23.0352L21.3761 22.2486L25.991 20.9411Z" fill="#D2D2D2"/>
<path d="M21.4121 44.4412C20.4447 44.4412 19.757 43.4931 20.066 42.5763C20.4707 41.3756 20.6903 40.0897 20.6903 38.7523C20.6903 38.6494 20.6903 38.5453 20.6866 38.4437C20.6462 36.8336 20.2801 35.325 19.6581 33.9682C19.5405 33.7111 19.4145 33.4588 19.2772 33.2115C16.7719 28.6663 11.2972 26.0887 5.85809 27.5875L0.000244141 29.2012C2.09532 22.987 10.7868 18.634 17.143 20.2502C19.9545 20.9655 22.7716 23.1499 24.277 24.4646C24.9382 25.0423 25.2878 25.8896 25.2588 26.7673C25.2557 26.8644 25.254 26.9618 25.254 27.0595C25.254 31.8827 29.1637 35.7926 33.9871 35.7926H34.0008C34.8756 35.792 35.683 36.2672 36.1051 37.0335C37.0063 38.6695 37.6512 40.1661 38.1001 41.38C38.3523 42.058 38.5437 42.6475 38.685 43.1231C38.8806 43.7811 38.3855 44.4411 37.6991 44.4411L21.4121 44.4412Z" fill="#E8E8EA"/>
<path d="M21.4121 44.4412C20.4446 44.4412 19.757 43.4931 20.066 42.5763C20.4707 41.3756 20.6903 40.0897 20.6903 38.7523C20.6903 38.6494 20.6903 38.5453 20.6866 38.4437C20.6462 36.8336 20.2801 35.325 19.6581 33.9682C21.8548 37.4911 30.8426 43.5265 38.1 41.38C38.3522 42.058 38.5436 42.6475 38.6849 43.1231C38.8805 43.7811 38.3853 44.4411 37.699 44.4411H21.4121V44.4412Z" fill="#D2D2D2"/>
</svg>
