<svg width="60" height="60" viewBox="0 0 60 60" fill="none" xmlns="http://www.w3.org/2000/svg">
<g clip-path="url(#clip0)">
<path d="M18.3126 16.5409H10.1241C9.15632 16.5409 8.26302 17.062 7.81637 17.9553L1.04217 32.0993C0.893289 32.4715 0.818848 32.8437 0.818848 33.2159V42.0744H20.8437V18.9975C20.8437 17.6576 19.727 16.5409 18.3126 16.5409Z" fill="#88B337"/>
<path d="M18.536 27.6328V18.9975C18.536 18.9231 18.4615 18.7742 18.3126 18.7742H10.1241C10.0496 18.7742 9.97517 18.8486 9.97517 18.9231L5.73199 27.6328H18.536Z" fill="black"/>
<path d="M60.0745 12H20.8437V42H60.0745V12Z" fill="#E8E8EA"/>
<path d="M60.0745 38.4268H20.8437V42H60.0745V38.4268Z" fill="#D2D2D2"/>
<path d="M11.1662 49.8908C14.7431 49.8908 17.6427 46.9912 17.6427 43.4144C17.6427 39.8376 14.7431 36.938 11.1662 36.938C7.58941 36.938 4.68982 39.8376 4.68982 43.4144C4.68982 46.9912 7.58941 49.8908 11.1662 49.8908Z" fill="black"/>
<path d="M11.1663 47.062C13.1808 47.062 14.8139 45.4289 14.8139 43.4144C14.8139 41.3999 13.1808 39.7668 11.1663 39.7668C9.15172 39.7668 7.51862 41.3999 7.51862 43.4144C7.51862 45.4289 9.15172 47.062 11.1663 47.062Z" fill="#E8E8EA"/>
<path d="M46.8983 49.8908C50.4751 49.8908 53.3747 46.9912 53.3747 43.4144C53.3747 39.8376 50.4751 36.938 46.8983 36.938C43.3214 36.938 40.4218 39.8376 40.4218 43.4144C40.4218 46.9912 43.3214 49.8908 46.8983 49.8908Z" fill="black"/>
<path d="M46.8983 38.129C49.3548 38.129 51.4392 39.7667 52.0347 42.0744H56.0546C55.3846 37.6079 51.5881 34.2581 46.9727 34.2581C42.3573 34.2581 38.5608 37.6824 37.8908 42.0744H41.9107C42.3573 39.7667 44.4417 38.129 46.8983 38.129Z" fill="#88B337"/>
<path d="M46.8983 47.062C48.9128 47.062 50.5459 45.4289 50.5459 43.4144C50.5459 41.3999 48.9128 39.7668 46.8983 39.7668C44.8837 39.7668 43.2506 41.3999 43.2506 43.4144C43.2506 45.4289 44.8837 47.062 46.8983 47.062Z" fill="#E8E8EA"/>
<path d="M0.521092 37.9057C0.223325 37.9057 0 38.129 0 38.4268V41.4789C0 41.7767 0.223325 42 0.521092 42H3.5732V37.8313H0.521092V37.9057Z" fill="black"/>
<path d="M11.1663 38.129C13.6228 38.129 15.7072 39.7667 16.3027 42.0744H20.3226C19.6526 37.6079 15.8561 34.2581 11.2407 34.2581C6.62531 34.2581 2.82879 37.6824 2.15881 42.0744H6.17866C6.69976 39.7667 8.70968 38.129 11.1663 38.129Z" fill="#AAD061"/>
<path d="M2.45656 35.3747C2.45656 34.4814 1.71215 33.737 0.818848 33.737V37.0868C1.71215 37.0124 2.45656 36.268 2.45656 35.3747Z" fill="#E8E8EA"/>
<path d="M34.0943 42H21.5881V44.2333H34.0943V42Z" fill="black"/>
<path d="M18.536 29.4194H15.4839V30.3127H18.536V29.4194Z" fill="white"/>
</g>
<defs>
<clipPath id="clip0">
<rect width="60" height="37.8908" fill="white" transform="translate(0 12)"/>
</clipPath>
</defs>
</svg>
