<svg width="60" height="60" viewBox="0 0 60 60" fill="none" xmlns="http://www.w3.org/2000/svg"><g clip-path="url(#clip0)"><path d="M.236 36.663v-3.64c.503-7.405 16.697-7.405 16.697-7.405a88.542 88.542 0 016.313-3.754 29.423 29.423 0 0114.55-3.516c2.565.055 8.317.396 9.845.677 5.762 1.06 9.546 6.508 9.546 6.508.433.11.76.33 1.003.61.94 1.053.713 2.566.713 4.788 2.469 3.598 0 6.527 0 6.527l-.482-.204-.846-.356-.262-.11-1.545.28-6.398 1.16-1.818.33-.156.029-.953-.495-.176-.092-29.248.587-.47-.323-.323-.22H6.225l-.463.15-.836.271-.373.122c-6.074-.208-4.317-1.924-4.317-1.924z" fill="#88B337"/><path d="M19.48 25.136a85.66 85.66 0 014.209-2.447c4.213-2.265 8.855-3.452 14.086-3.405 9.287.195 13.223.44 17.893 5.852H19.48z" fill="#E8E8EA"/><path d="M46.205 36.4c0 .587.08 1.156.236 1.694l.953.495.156-.028a5.258 5.258 0 0010.026-1.663l.845.356a6.136 6.136 0 00-6.079-6.992 6.139 6.139 0 00-6.137 6.139z" fill="#454545"/><path d="M55.147 26.46l3.041-.317h.002c.67.752.731 1.775.731 2.758 0 0-.935-.2-2.613-.761-1.682-.56-1.161-1.68-1.161-1.68zM4.794 28.861a3.795 3.795 0 01-3.793 3.797 3.796 3.796 0 013.793-3.797z" fill="#fff"/><path d="M46.516 19.845v5.287h1.125v-5.137c-.238-.08-.935-.15-1.125-.15zm-9.843-.545v5.832h1.125v-5.85c-.259 0-.884-.007-1.125.019z" fill="#000"/><path d="M31.86 27.196h3.138a.323.323 0 010 .645H31.86a.323.323 0 110-.645z" fill="#fff"/><path d="M4.562 36.4c0 .726.125 1.424.358 2.069l.836-.272a5.258 5.258 0 009.934-.15h.53l.323.221a6.136 6.136 0 10-11.981-1.867z" fill="#454545"/><path d="M52.342 31.145a5.257 5.257 0 11-4.79 7.417 5.223 5.223 0 01-.464-2.161 5.25 5.25 0 015.254-5.256z" fill="#000"/><path d="M52.342 39.892a3.491 3.491 0 110-6.983 3.491 3.491 0 010 6.983z" fill="#E8E8EA"/><path d="M10.698 31.145a5.257 5.257 0 110 10.515 5.257 5.257 0 010-10.515z" fill="#000"/><path d="M10.698 39.892a3.491 3.491 0 110-6.983 3.491 3.491 0 010 6.983z" fill="#E8E8EA"/></g><defs><clipPath id="clip0"><path fill="#fff" transform="matrix(-1 0 0 1 60 0)" d="M0 0h60v60H0z"/></clipPath></defs></svg>