<svg width="60" height="60" viewBox="0 0 60 60" fill="none" xmlns="http://www.w3.org/2000/svg"><g clip-path="url(#clip0)"><path d="M26.882 3.97v31.687h17.96L26.882 3.97z" fill="#E8E8EA"/><path d="M3.147 41.56h24.218s-8.4-4.99-2.527-31.633L3.148 41.56z" fill="#E8E8EA"/><path d="M1.3 45.158a.904.904 0 00.748-.393l25.58-37.307a.905.905 0 10-1.493-1.024L.555 43.741a.905.905 0 00.745 1.417z" fill="#000"/><path d="M26.882 41.657c.5 0 .905-.405.905-.905V3.366a.905.905 0 10-1.81 0v37.386c0 .5.405.905.905.905zM.752 43.65c.869.183 3.597.685 3.597.685a.62.62 0 00.076.228A304.084 304.084 0 006.749 48.6a137.54 137.54 0 01-4.79-.765l-1.877-3.27a.622.622 0 01.67-.914z" fill="#000"/><path d="M26.882 36.562h19.401a.905.905 0 100-1.81H26.882a.905.905 0 100 1.81zM44.95 49.104l-6.48-8.932a1.866 1.866 0 00-1.51-.77H25.19c-2.48 0-4.886.84-6.827 2.383l-6.989 5.554 33.574 1.765z" fill="#000"/><path d="M1.96 47.834h-.001c-.005-.008-.004-.008 0 0zm56.56 3.633l-2.75 5.73a.604.604 0 01-.544.342H8.443c-.42 0-.81-.218-1.03-.577-.888-1.452-5.308-8.889-5.454-9.128 8.7 1.556 19.396 1.631 29.709 2.144 10.05.5 19.735 1.457 26.852 1.49z" fill="#88B337"/><path d="M29.582 49.338l-13.309-.234c1.277-.934 6.074-6.211 8.918-6.211h4.39v6.445zm1.81-6.446h4.435c.191 0 .37.092.482.246l4.644 6.4-9.56-.168v-6.477z" fill="#fff"/><path d="M58.52 51.467c-14.42-.065-39.385-.56-56.56-3.633a289.123 289.123 0 01-1.878-3.27.622.622 0 01.67-.914c17.143 3.616 45.07 3.956 58.625 3.97.459 0 .76.48.56.893l-1.417 2.954z" fill="#E8E8EA"/></g><defs><clipPath id="clip0"><path fill="#fff" transform="matrix(-1 0 0 1 60 0)" d="M0 0h60v60H0z"/></clipPath></defs></svg>