<svg width="60" height="60" viewBox="0 0 60 60" fill="none" xmlns="http://www.w3.org/2000/svg"><path d="M51.266 30.019a8.734 8.734 0 100 17.467 8.734 8.734 0 000-17.467zm0 14.098a5.365 5.365 0 110-10.73 5.365 5.365 0 010 10.73z" fill="#88B337"/><path d="M51.266 45.035a6.285 6.285 0 01-6.272-5.912l1.834-.107a4.447 4.447 0 004.438 4.182 4.451 4.451 0 004.446-4.446 4.446 4.446 0 00-8.354-2.123l-1.613-.877a6.281 6.281 0 015.52-3.283 6.29 6.29 0 016.283 6.283 6.29 6.29 0 01-6.282 6.283z" fill="#000"/><path d="M8.734 30.019a8.734 8.734 0 100 17.467 8.734 8.734 0 000-17.467zm0 14.098a5.365 5.365 0 110-10.73 5.365 5.365 0 010 10.73z" fill="#88B337"/><path d="M8.733 45.035a6.29 6.29 0 01-6.283-6.283 6.29 6.29 0 016.283-6.283 6.29 6.29 0 016.284 6.283 6.29 6.29 0 01-6.284 6.283zm0-10.73a4.451 4.451 0 00-4.446 4.447A4.451 4.451 0 008.733 43.2a4.451 4.451 0 004.447-4.447 4.451 4.451 0 00-4.447-4.446z" fill="#000"/><path d="M8.733 39.67a.917.917 0 01-.844-1.279l4.602-10.757a.918.918 0 011.689.722L9.578 39.114a.919.919 0 01-.845.557z" fill="#1D2C30"/><path d="M37.366 39.575l14.532-.652c.898-.04 1.111-1.273.28-1.613l-14.3-5.835-6.21-2.07-5.327 10.468 11.025-.298z" fill="#000"/><path d="M37.325 17.73L20.648 31.058l-.88-4.08-1.36-6.313L19.8 18.9a6.25 6.25 0 015.525-2.353l4.317.427 7.683.758zm-22.998 5.212l2.955-8.758c.324-.965-.57-1.906-1.547-1.617C4.61 15.86.29 28.333.015 29.158l-.011.032-.004.011" fill="#88B337"/><path d="M24.613 22.33c2.06 3.868-2.5 4.546-4.844 4.648l-1.36-6.313L19.8 18.9a6.25 6.25 0 015.525-2.353l4.317.427c-1.48-.146-7.753.243-5.03 5.357z" fill="#88B337"/><path d="M20.648 31.057l9.933 4.048L45.43 27.72l3.11-6.61a3.595 3.595 0 012.682-2.018l7.444-1.198a1.587 1.587 0 00-.252-3.154H47.877l-10.552 2.99h-.002l-15.947 4.52-.728 8.808z" fill="#E8E8EA"/><path d="M28.264 20.297l2.73 2.08a3.956 3.956 0 004.516.197l12.368-7.834" fill="#000"/><path d="M25.991 20.941l10.268 6.735 9.17.044-14.848 7.385h-7.546l-1.659-12.856 4.615-1.308z" fill="#D2D2D2"/><path d="M21.412 44.441a1.417 1.417 0 01-1.346-1.865c.405-1.2.624-2.486.624-3.824 0-.103 0-.207-.003-.308a11.386 11.386 0 00-1.41-5.233c-2.505-4.545-7.98-7.122-13.419-5.623L0 29.2c2.095-6.214 10.787-10.567 17.143-8.95 2.811.714 5.629 2.899 7.134 4.214a2.917 2.917 0 01.982 2.302 8.733 8.733 0 008.728 9.025h.014a2.4 2.4 0 012.104 1.241A32.228 32.228 0 0138.1 41.38c.252.678.444 1.267.585 1.743.196.658-.3 1.318-.986 1.318H21.412z" fill="#E8E8EA"/><path d="M21.412 44.441a1.417 1.417 0 01-1.346-1.865c.405-1.2.624-2.486.624-3.824 0-.103 0-.207-.003-.308a11.386 11.386 0 00-1.029-4.476c2.197 3.523 11.185 9.558 18.442 7.412.252.678.444 1.267.585 1.743.195.658-.3 1.318-.986 1.318H21.412z" fill="#D2D2D2"/></svg>