<svg width="60" height="60" viewBox="0 0 60 60" fill="none" xmlns="http://www.w3.org/2000/svg"><g clip-path="url(#clip0)"><path d="M18.313 16.54h-8.189c-.968 0-1.861.522-2.308 1.415L1.042 32.1a2.987 2.987 0 00-.223 1.117v8.858h20.025V18.998c0-1.34-1.117-2.457-2.531-2.457z" fill="#88B337"/><path d="M18.536 27.633v-8.636c0-.074-.075-.223-.223-.223h-8.189a.16.16 0 00-.149.15l-4.243 8.709h12.804z" fill="#000"/><path d="M60.075 12H20.843v30h39.23V12z" fill="#E8E8EA"/><path d="M60.075 38.427H20.843V42h39.23v-3.573z" fill="#D2D2D2"/><path d="M11.166 49.89a6.476 6.476 0 100-12.952 6.476 6.476 0 000 12.953z" fill="#000"/><path d="M11.166 47.062a3.648 3.648 0 100-7.295 3.648 3.648 0 000 7.295z" fill="#E8E8EA"/><path d="M46.898 49.89a6.476 6.476 0 100-12.952 6.476 6.476 0 000 12.953z" fill="#000"/><path d="M46.898 38.129c2.457 0 4.541 1.638 5.137 3.945h4.02a9.148 9.148 0 00-9.082-7.816c-4.616 0-8.412 3.424-9.082 7.816h4.02c.446-2.307 2.53-3.945 4.987-3.945z" fill="#88B337"/><path d="M46.898 47.062a3.648 3.648 0 100-7.295 3.648 3.648 0 000 7.295z" fill="#E8E8EA"/><path d="M.521 37.906a.509.509 0 00-.521.52v3.053c0 .298.223.521.521.521h3.052v-4.169H.521v.075z" fill="#000"/><path d="M11.166 38.129c2.457 0 4.541 1.638 5.137 3.945h4.02a9.148 9.148 0 00-9.082-7.816c-4.616 0-8.412 3.424-9.082 7.816h4.02c.52-2.307 2.53-3.945 4.987-3.945z" fill="#AAD061"/><path d="M2.457 35.375c0-.894-.745-1.638-1.638-1.638v3.35c.893-.075 1.638-.819 1.638-1.712z" fill="#E8E8EA"/><path d="M34.094 42H21.588v2.233h12.506V42z" fill="#000"/><path d="M18.536 29.42h-3.052v.893h3.052v-.894z" fill="#fff"/></g><defs><clipPath id="clip0"><path fill="#fff" transform="translate(0 12)" d="M0 0h60v37.891H0z"/></clipPath></defs></svg>