<svg width="30" height="30" viewBox="0 0 30 30" fill="none" xmlns="http://www.w3.org/2000/svg">
<g clip-path="url(#clip0)">
<path d="M29.1211 10.7012C29.6065 10.7012 30 10.3076 30 9.82225V6.0566C30 5.57121 29.6065 5.1777 29.1211 5.1777H26.2344V2.29102C26.2344 1.80562 25.8408 1.41211 25.3554 1.41211H21.5898C21.1044 1.41211 20.7109 1.80562 20.7109 2.29102V5.17775H9.28904V2.29102C9.28904 1.80562 8.89553 1.41211 8.41014 1.41211H4.64455C4.15916 1.41211 3.76564 1.80562 3.76564 2.29102V5.17775H0.878906C0.393516 5.17775 0 5.57127 0 6.05666V9.8223C0 10.3077 0.393516 10.7012 0.878906 10.7012H1.88285V26.8301H0.878906C0.393516 26.8301 0 27.2236 0 27.709C0 28.1944 0.393516 28.5879 0.878906 28.5879H29.1211C29.6065 28.5879 30 28.1944 30 27.709C30 27.2236 29.6065 26.8301 29.1211 26.8301H28.1171V10.7012H29.1211ZM22.4688 3.16992H24.4766V5.17775H22.4688V3.16992ZM5.52346 3.16992H7.53129V5.17775H5.52346V3.16992ZM26.3593 26.8301H3.64066V10.7012H26.3593V26.8301ZM1.75781 8.94334V6.93551H28.2422V8.94334H1.75781Z" fill="black"/>
<path d="M10.2939 20.1152H12.2391V23.9433C12.2391 24.2988 12.4532 24.6193 12.7817 24.7553C13.0858 24.8813 13.4698 24.8345 13.7395 24.5648L20.3294 17.9749C20.5808 17.7235 20.6559 17.3455 20.52 17.0171C20.3839 16.6887 20.0635 16.4745 19.708 16.4745H18.3059L19.5526 13.9808C19.6889 13.7084 19.6743 13.3848 19.5142 13.1257C19.3541 12.8666 19.0711 12.7089 18.7665 12.7089H13.1181C12.7852 12.7089 12.4808 12.897 12.332 13.1947L9.50784 18.8432C9.37161 19.1156 9.38615 19.4392 9.54628 19.6983C9.70642 19.9575 9.98931 20.1152 10.2939 20.1152ZM13.6613 14.4668H17.3444L16.0976 16.9605C15.9614 17.2329 15.9759 17.5565 16.1361 17.8156C16.2962 18.0747 16.5792 18.2324 16.8837 18.2324H17.586L13.9969 21.8215V19.2363C13.9969 18.7509 13.6034 18.3574 13.118 18.3574H11.716L13.6613 14.4668Z" fill="black"/>
</g>
<defs>
<clipPath id="clip0">
<rect width="30" height="30" fill="white"/>
</clipPath>
</defs>
</svg>
