<svg width="30" height="30" viewBox="0 0 30 30" fill="none" xmlns="http://www.w3.org/2000/svg"><g clip-path="url(#clip0)" fill="#000"><path d="M29.121 10.701A.879.879 0 0030 9.822V6.057a.879.879 0 00-.879-.88h-2.887V2.292a.879.879 0 00-.879-.879H21.59a.879.879 0 00-.88.879v2.887H9.29V2.29a.879.879 0 00-.879-.879H4.645a.879.879 0 00-.88.879v2.887H.88a.879.879 0 00-.88.88v3.765c0 .486.394.88.879.88h1.004V26.83H.879a.879.879 0 000 1.758H29.12a.879.879 0 000-1.758h-1.004V10.701h1.004zM22.47 3.17h2.008v2.008H22.47V3.17zm-16.946 0h2.008v2.008H5.523V3.17zM26.36 26.83H3.641V10.701h22.718v16.13zM1.758 8.943V6.936h26.484v2.007H1.758z"/><path d="M10.294 20.115h1.945v3.828a.879.879 0 001.5.622l6.59-6.59a.88.88 0 00-.621-1.5h-1.402l1.247-2.494a.879.879 0 00-.787-1.272h-5.648a.879.879 0 00-.786.486l-2.824 5.648a.879.879 0 00.786 1.272zm3.367-5.648h3.683l-1.246 2.493a.879.879 0 00.786 1.272h.702l-3.59 3.59v-2.586a.879.879 0 00-.878-.879h-1.402l1.945-3.89z"/></g><defs><clipPath id="clip0"><path fill="#fff" d="M0 0h30v30H0z"/></clipPath></defs></svg>